<mxfile host="app.diagrams.net" agent="Mozilla/5.0 (Windows NT 10.0; Win64; x64) AppleWebKit/537.36 (KHTML, like Gecko) Chrome/131.0.0.0 Safari/537.36" version="25.0.3">
  <diagram name="Страница — 1" id="E74FW314qElybL801iFK">
    <mxGraphModel dx="1674" dy="746" grid="0" gridSize="10" guides="1" tooltips="1" connect="1" arrows="1" fold="1" page="1" pageScale="1" pageWidth="1169" pageHeight="1654" math="0" shadow="0">
      <root>
        <mxCell id="0" />
        <mxCell id="1" parent="0" />
        <mxCell id="MdBvJ4vBz9aka0Hln-nA-1" value="БД" style="shape=cylinder3;whiteSpace=wrap;html=1;boundedLbl=1;backgroundOutline=1;size=15;" vertex="1" parent="1">
          <mxGeometry x="520" y="115" width="111" height="80" as="geometry" />
        </mxCell>
        <mxCell id="MdBvJ4vBz9aka0Hln-nA-8" value="Главный модуль" style="rounded=0;whiteSpace=wrap;html=1;" vertex="1" parent="1">
          <mxGeometry x="527" y="625" width="120" height="60" as="geometry" />
        </mxCell>
        <mxCell id="MdBvJ4vBz9aka0Hln-nA-28" value="" style="edgeStyle=orthogonalEdgeStyle;rounded=0;orthogonalLoop=1;jettySize=auto;html=1;" edge="1" parent="1" source="MdBvJ4vBz9aka0Hln-nA-9" target="MdBvJ4vBz9aka0Hln-nA-15">
          <mxGeometry relative="1" as="geometry" />
        </mxCell>
        <mxCell id="MdBvJ4vBz9aka0Hln-nA-9" value="VolunteerRestController" style="rounded=0;whiteSpace=wrap;html=1;" vertex="1" parent="1">
          <mxGeometry x="41" y="422" width="168.5" height="60" as="geometry" />
        </mxCell>
        <mxCell id="MdBvJ4vBz9aka0Hln-nA-29" value="" style="edgeStyle=orthogonalEdgeStyle;rounded=0;orthogonalLoop=1;jettySize=auto;html=1;" edge="1" parent="1" source="MdBvJ4vBz9aka0Hln-nA-10" target="MdBvJ4vBz9aka0Hln-nA-16">
          <mxGeometry relative="1" as="geometry" />
        </mxCell>
        <mxCell id="MdBvJ4vBz9aka0Hln-nA-10" value="ActionRestController" style="rounded=0;whiteSpace=wrap;html=1;" vertex="1" parent="1">
          <mxGeometry x="236" y="422" width="167.5" height="60" as="geometry" />
        </mxCell>
        <mxCell id="MdBvJ4vBz9aka0Hln-nA-30" value="" style="edgeStyle=orthogonalEdgeStyle;rounded=0;orthogonalLoop=1;jettySize=auto;html=1;" edge="1" parent="1" source="MdBvJ4vBz9aka0Hln-nA-11" target="MdBvJ4vBz9aka0Hln-nA-17">
          <mxGeometry relative="1" as="geometry" />
        </mxCell>
        <mxCell id="MdBvJ4vBz9aka0Hln-nA-11" value="EventRestController" style="rounded=0;whiteSpace=wrap;html=1;" vertex="1" parent="1">
          <mxGeometry x="421" y="422" width="166.5" height="60" as="geometry" />
        </mxCell>
        <mxCell id="MdBvJ4vBz9aka0Hln-nA-31" value="" style="edgeStyle=orthogonalEdgeStyle;rounded=0;orthogonalLoop=1;jettySize=auto;html=1;" edge="1" parent="1" source="MdBvJ4vBz9aka0Hln-nA-12" target="MdBvJ4vBz9aka0Hln-nA-18">
          <mxGeometry relative="1" as="geometry" />
        </mxCell>
        <mxCell id="MdBvJ4vBz9aka0Hln-nA-12" value="ApplicationRestControlller" style="rounded=0;whiteSpace=wrap;html=1;" vertex="1" parent="1">
          <mxGeometry x="616" y="422" width="168.5" height="60" as="geometry" />
        </mxCell>
        <mxCell id="MdBvJ4vBz9aka0Hln-nA-32" value="" style="edgeStyle=orthogonalEdgeStyle;rounded=0;orthogonalLoop=1;jettySize=auto;html=1;" edge="1" parent="1" source="MdBvJ4vBz9aka0Hln-nA-13" target="MdBvJ4vBz9aka0Hln-nA-19">
          <mxGeometry relative="1" as="geometry" />
        </mxCell>
        <mxCell id="MdBvJ4vBz9aka0Hln-nA-13" value="ActionGuidRestController" style="rounded=0;whiteSpace=wrap;html=1;" vertex="1" parent="1">
          <mxGeometry x="815" y="422" width="166" height="60" as="geometry" />
        </mxCell>
        <mxCell id="MdBvJ4vBz9aka0Hln-nA-33" value="" style="edgeStyle=orthogonalEdgeStyle;rounded=0;orthogonalLoop=1;jettySize=auto;html=1;" edge="1" parent="1" source="MdBvJ4vBz9aka0Hln-nA-14" target="MdBvJ4vBz9aka0Hln-nA-20">
          <mxGeometry relative="1" as="geometry" />
        </mxCell>
        <mxCell id="MdBvJ4vBz9aka0Hln-nA-14" value="LanguageGuidRestController" style="rounded=0;whiteSpace=wrap;html=1;" vertex="1" parent="1">
          <mxGeometry x="996" y="422" width="168.5" height="60" as="geometry" />
        </mxCell>
        <mxCell id="MdBvJ4vBz9aka0Hln-nA-15" value="Volunteer" style="rounded=0;whiteSpace=wrap;html=1;" vertex="1" parent="1">
          <mxGeometry x="41" y="318" width="168.5" height="60" as="geometry" />
        </mxCell>
        <mxCell id="MdBvJ4vBz9aka0Hln-nA-16" value="Action" style="rounded=0;whiteSpace=wrap;html=1;" vertex="1" parent="1">
          <mxGeometry x="236" y="318" width="167.5" height="60" as="geometry" />
        </mxCell>
        <mxCell id="MdBvJ4vBz9aka0Hln-nA-17" value="Event" style="rounded=0;whiteSpace=wrap;html=1;" vertex="1" parent="1">
          <mxGeometry x="421" y="318" width="166.5" height="60" as="geometry" />
        </mxCell>
        <mxCell id="MdBvJ4vBz9aka0Hln-nA-18" value="Application" style="rounded=0;whiteSpace=wrap;html=1;" vertex="1" parent="1">
          <mxGeometry x="616" y="318" width="168.5" height="60" as="geometry" />
        </mxCell>
        <mxCell id="MdBvJ4vBz9aka0Hln-nA-19" value="ActionGuid" style="rounded=0;whiteSpace=wrap;html=1;" vertex="1" parent="1">
          <mxGeometry x="815" y="318" width="166" height="60" as="geometry" />
        </mxCell>
        <mxCell id="MdBvJ4vBz9aka0Hln-nA-20" value="LanguageGuid" style="rounded=0;whiteSpace=wrap;html=1;" vertex="1" parent="1">
          <mxGeometry x="996" y="318" width="168.5" height="60" as="geometry" />
        </mxCell>
        <mxCell id="MdBvJ4vBz9aka0Hln-nA-21" value="" style="endArrow=classic;html=1;rounded=0;entryX=0.5;entryY=1;entryDx=0;entryDy=0;" edge="1" parent="1" target="MdBvJ4vBz9aka0Hln-nA-14">
          <mxGeometry width="50" height="50" relative="1" as="geometry">
            <mxPoint x="648" y="655" as="sourcePoint" />
            <mxPoint x="698" y="605" as="targetPoint" />
            <Array as="points">
              <mxPoint x="1083" y="658" />
            </Array>
          </mxGeometry>
        </mxCell>
        <mxCell id="MdBvJ4vBz9aka0Hln-nA-22" value="" style="endArrow=classic;html=1;rounded=0;entryX=0.5;entryY=1;entryDx=0;entryDy=0;" edge="1" parent="1" target="MdBvJ4vBz9aka0Hln-nA-9">
          <mxGeometry width="50" height="50" relative="1" as="geometry">
            <mxPoint x="527" y="656" as="sourcePoint" />
            <mxPoint x="577" y="606" as="targetPoint" />
            <Array as="points">
              <mxPoint x="125" y="656" />
            </Array>
          </mxGeometry>
        </mxCell>
        <mxCell id="MdBvJ4vBz9aka0Hln-nA-23" value="" style="endArrow=classic;html=1;rounded=0;entryX=0.5;entryY=1;entryDx=0;entryDy=0;" edge="1" parent="1" target="MdBvJ4vBz9aka0Hln-nA-10">
          <mxGeometry width="50" height="50" relative="1" as="geometry">
            <mxPoint x="320" y="658" as="sourcePoint" />
            <mxPoint x="363" y="605" as="targetPoint" />
          </mxGeometry>
        </mxCell>
        <mxCell id="MdBvJ4vBz9aka0Hln-nA-24" value="" style="endArrow=classic;html=1;rounded=0;entryX=0.5;entryY=1;entryDx=0;entryDy=0;" edge="1" parent="1">
          <mxGeometry width="50" height="50" relative="1" as="geometry">
            <mxPoint x="501" y="658" as="sourcePoint" />
            <mxPoint x="501" y="482" as="targetPoint" />
          </mxGeometry>
        </mxCell>
        <mxCell id="MdBvJ4vBz9aka0Hln-nA-25" value="" style="endArrow=classic;html=1;rounded=0;entryX=0.5;entryY=1;entryDx=0;entryDy=0;" edge="1" parent="1">
          <mxGeometry width="50" height="50" relative="1" as="geometry">
            <mxPoint x="699.75" y="656" as="sourcePoint" />
            <mxPoint x="699.75" y="480" as="targetPoint" />
          </mxGeometry>
        </mxCell>
        <mxCell id="MdBvJ4vBz9aka0Hln-nA-26" value="" style="endArrow=classic;html=1;rounded=0;entryX=0.5;entryY=1;entryDx=0;entryDy=0;" edge="1" parent="1">
          <mxGeometry width="50" height="50" relative="1" as="geometry">
            <mxPoint x="903" y="658" as="sourcePoint" />
            <mxPoint x="903" y="482" as="targetPoint" />
          </mxGeometry>
        </mxCell>
        <mxCell id="MdBvJ4vBz9aka0Hln-nA-27" value="" style="endArrow=classic;html=1;rounded=0;entryX=0.5;entryY=1;entryDx=0;entryDy=0;exitX=0.5;exitY=0;exitDx=0;exitDy=0;" edge="1" parent="1" source="MdBvJ4vBz9aka0Hln-nA-9" target="MdBvJ4vBz9aka0Hln-nA-15">
          <mxGeometry width="50" height="50" relative="1" as="geometry">
            <mxPoint x="126" y="421" as="sourcePoint" />
            <mxPoint x="176" y="371" as="targetPoint" />
          </mxGeometry>
        </mxCell>
        <mxCell id="MdBvJ4vBz9aka0Hln-nA-34" value="" style="endArrow=classic;html=1;rounded=0;entryX=0;entryY=0.5;entryDx=0;entryDy=0;entryPerimeter=0;" edge="1" parent="1" target="MdBvJ4vBz9aka0Hln-nA-1">
          <mxGeometry width="50" height="50" relative="1" as="geometry">
            <mxPoint x="125" y="317" as="sourcePoint" />
            <mxPoint x="175" y="267" as="targetPoint" />
            <Array as="points">
              <mxPoint x="123" y="155" />
            </Array>
          </mxGeometry>
        </mxCell>
        <mxCell id="MdBvJ4vBz9aka0Hln-nA-35" value="" style="endArrow=classic;html=1;rounded=0;entryX=1;entryY=0.5;entryDx=0;entryDy=0;entryPerimeter=0;" edge="1" parent="1" target="MdBvJ4vBz9aka0Hln-nA-1">
          <mxGeometry width="50" height="50" relative="1" as="geometry">
            <mxPoint x="1082" y="318" as="sourcePoint" />
            <mxPoint x="1132" y="268" as="targetPoint" />
            <Array as="points">
              <mxPoint x="1079" y="155" />
            </Array>
          </mxGeometry>
        </mxCell>
        <mxCell id="MdBvJ4vBz9aka0Hln-nA-36" value="" style="endArrow=none;html=1;rounded=0;" edge="1" parent="1">
          <mxGeometry width="50" height="50" relative="1" as="geometry">
            <mxPoint x="320" y="319" as="sourcePoint" />
            <mxPoint x="320" y="155" as="targetPoint" />
          </mxGeometry>
        </mxCell>
        <mxCell id="MdBvJ4vBz9aka0Hln-nA-38" value="" style="endArrow=none;html=1;rounded=0;" edge="1" parent="1">
          <mxGeometry width="50" height="50" relative="1" as="geometry">
            <mxPoint x="503.75" y="318" as="sourcePoint" />
            <mxPoint x="503.75" y="154" as="targetPoint" />
          </mxGeometry>
        </mxCell>
        <mxCell id="MdBvJ4vBz9aka0Hln-nA-39" value="" style="endArrow=none;html=1;rounded=0;" edge="1" parent="1">
          <mxGeometry width="50" height="50" relative="1" as="geometry">
            <mxPoint x="703" y="318" as="sourcePoint" />
            <mxPoint x="703" y="154" as="targetPoint" />
          </mxGeometry>
        </mxCell>
        <mxCell id="MdBvJ4vBz9aka0Hln-nA-40" value="" style="endArrow=none;html=1;rounded=0;" edge="1" parent="1">
          <mxGeometry width="50" height="50" relative="1" as="geometry">
            <mxPoint x="901" y="320" as="sourcePoint" />
            <mxPoint x="901" y="156" as="targetPoint" />
          </mxGeometry>
        </mxCell>
      </root>
    </mxGraphModel>
  </diagram>
</mxfile>
